<?xml version="1.0" standalone="no"?>
<!DOCTYPE svg PUBLIC "-//W3C//DTD SVG 20010904//EN"
 "http://www.w3.org/TR/2001/REC-SVG-20010904/DTD/svg10.dtd">
<svg version="1.0" xmlns="http://www.w3.org/2000/svg"
 width="326.000000pt" height="326.000000pt" viewBox="0 0 326.000000 326.000000"
 preserveAspectRatio="xMidYMid meet">
<metadata>
Created by potrace 1.11, written by Peter Selinger 2001-2013
</metadata>
<g transform="translate(0.000000,326.000000) scale(0.100000,-0.100000)"
fill="#000000" stroke="none">
<path d="M333 3203 c-59 -92 -185 -394 -171 -408 2 -3 15 28 27 68 39 120 97
236 185 370 11 16 14 27 7 27 -6 0 -28 -26 -48 -57z"/>
<path d="M575 3183 c-31 -43 -72 -105 -90 -138 -38 -68 -111 -244 -119 -290
-4 -16 5 2 19 40 56 154 161 332 253 428 32 33 34 37 15 37 -15 0 -38 -23 -78
-77z"/>
<path d="M821 3184 c-96 -103 -179 -230 -224 -343 -21 -51 -36 -95 -34 -97 2
-3 12 17 22 43 48 129 163 292 282 403 68 62 74 70 51 70 -19 0 -44 -19 -97
-76z"/>
<path d="M1076 3211 c-35 -27 -67 -47 -70 -43 -3 3 -6 -2 -6 -11 0 -9 -3 -17
-7 -17 -5 0 -28 -24 -53 -53 -24 -28 -36 -45 -25 -37 10 8 -4 -14 -31 -50 -28
-36 -62 -85 -76 -110 -31 -54 -98 -213 -98 -232 0 -7 14 20 30 60 44 108 111
206 208 305 97 99 168 152 274 202 l72 35 -76 0 c-77 0 -77 0 -142 -49z"/>
<path d="M2073 3217 c254 -128 436 -354 507 -631 10 -40 20 -97 22 -127 l3
-54 -120 -13 c-166 -18 -1567 -25 -1710 -9 -55 7 -106 16 -114 21 -22 14 -8
173 23 271 14 43 24 81 22 83 -8 8 -59 -166 -75 -256 l-17 -97 -51 -3 c-65 -4
-72 8 -74 115 -1 82 17 175 50 264 11 29 19 55 17 57 -6 5 -43 -97 -66 -181
-11 -39 -25 -109 -31 -156 -6 -47 -16 -89 -23 -93 -6 -4 -35 -8 -65 -8 l-54 0
6 98 c3 63 2 90 -4 77 -6 -14 -8 3 -6 55 3 52 15 107 40 180 19 58 34 106 32
108 -6 7 -64 -157 -83 -238 -23 -91 -42 -228 -42 -297 0 -37 4 -45 26 -53 16
-6 518 -10 1364 -10 1179 0 1340 2 1354 15 23 24 29 55 14 73 -8 9 -22 70 -32
135 -36 252 -131 482 -271 660 -37 46 -51 57 -75 57 l-29 0 67 -84 c155 -193
251 -422 281 -670 13 -104 12 -106 -65 -106 -58 0 -64 7 -64 69 0 20 -5 42
-10 47 -6 6 -24 62 -41 124 -57 218 -143 378 -282 526 -83 88 -92 94 -129 94
l-39 0 63 -54 c197 -167 338 -430 379 -706 13 -94 10 -100 -54 -100 -49 0 -71
21 -62 58 9 43 -31 216 -48 205 -5 -3 -6 4 -2 17 5 15 3 20 -3 16 -13 -8 -26
29 -16 45 5 8 3 9 -6 4 -10 -6 -12 -4 -7 9 4 9 3 15 -2 12 -4 -3 -13 6 -20 20
-6 14 -7 23 -2 20 5 -3 12 1 15 10 7 19 -97 180 -169 261 -25 29 -85 82 -133
118 l-87 65 -95 0 -94 0 87 -43z"/>
<path d="M2880 3256 c0 -2 21 -35 46 -73 136 -205 222 -460 243 -725 10 -120
19 -138 68 -138 20 0 23 5 23 40 0 36 -2 39 -27 37 -24 -2 -28 2 -30 33 -19
265 -78 480 -186 680 -65 122 -87 150 -113 150 -13 0 -24 -2 -24 -4z"/>
<path d="M150 3240 c-22 -6 -23 -8 -7 -15 20 -8 47 0 47 15 0 11 -4 11 -40 0z"/>
<path d="M3060 3240 c0 -15 27 -23 48 -15 16 7 15 8 -3 15 -28 12 -45 12 -45
0z"/>
<path d="M19 3044 c-16 -20 0 -49 26 -49 24 0 40 51 18 59 -22 9 -29 7 -44
-10z"/>
<path d="M3192 3048 c-27 -27 -4 -66 32 -52 15 6 29 54 15 54 -4 0 -13 2 -21
5 -7 3 -19 0 -26 -7z"/>
<path d="M1018 3043 c-1 -5 -16 -15 -32 -23 -57 -29 -53 -106 6 -138 17 -9 42
-27 55 -39 22 -21 23 -27 23 -192 0 -133 4 -179 16 -211 l16 -40 58 0 c90 0
94 10 98 242 4 188 4 188 29 208 32 25 38 25 63 0 18 -18 20 -33 20 -197 0
-149 3 -184 18 -213 16 -33 20 -35 74 -38 52 -3 58 -1 74 23 9 15 20 57 23 95
7 76 18 95 49 86 23 -8 32 -33 32 -94 0 -24 7 -59 16 -78 16 -33 18 -34 73
-34 53 0 58 2 76 33 18 30 20 51 20 282 0 222 -2 254 -17 278 -10 14 -18 33
-18 42 0 11 -10 15 -35 15 -19 0 -35 -4 -35 -9 0 -5 -11 -12 -25 -15 -34 -9
-48 -39 -56 -119 -4 -44 -12 -74 -23 -85 -16 -16 -19 -16 -37 7 -13 16 -19 39
-19 73 0 28 -6 64 -14 81 -8 18 -16 40 -20 50 -6 18 -54 24 -72 8 -19 -18 -81
-22 -94 -6 -10 12 -42 15 -175 15 -90 0 -165 -3 -167 -7z"/>
<path d="M1960 3041 c0 -5 -11 -12 -25 -15 -14 -4 -33 -21 -42 -39 -16 -28
-18 -61 -18 -272 0 -214 2 -244 19 -277 l18 -38 162 0 163 0 13 25 c15 29 16
83 1 98 -6 6 -11 19 -11 29 0 14 -11 18 -67 20 -59 3 -68 5 -68 22 0 16 11 22
58 31 92 18 113 52 87 138 l-14 47 -69 0 c-65 0 -68 1 -65 22 2 19 11 24 52
30 57 8 98 34 106 69 4 13 -1 45 -9 71 l-16 48 -137 0 c-76 0 -138 -4 -138 -9z"/>
<path d="M190 2993 c-62 -135 -117 -348 -128 -499 -7 -83 -8 -88 -32 -94 -19
-4 -26 -13 -28 -38 -3 -32 -3 -32 41 -32 37 0 46 4 55 25 7 14 11 58 10 98
l-1 72 -7 -55 c-6 -49 -7 -51 -8 -15 -6 142 33 351 93 500 25 60 29 87 5 38z"/>
<path d="M725 2809 c-4 -6 -5 -12 -2 -15 2 -3 7 2 10 11 7 17 1 20 -8 4z"/>
<path d="M151 2764 c0 -11 3 -14 6 -6 3 7 2 16 -1 19 -3 4 -6 -2 -5 -13z"/>
<path d="M141 2724 c0 -11 3 -14 6 -6 3 7 2 16 -1 19 -3 4 -6 -2 -5 -13z"/>
<path d="M351 2704 c0 -11 3 -14 6 -6 3 7 2 16 -1 19 -3 4 -6 -2 -5 -13z"/>
<path d="M131 2684 c0 -11 3 -14 6 -6 3 7 2 16 -1 19 -3 4 -6 -2 -5 -13z"/>
<path d="M536 2674 c-4 -14 -5 -28 -3 -31 3 -2 8 8 11 23 4 14 5 28 3 31 -3 2
-8 -8 -11 -23z"/>
<path d="M341 2664 c0 -11 3 -14 6 -6 3 7 2 16 -1 19 -3 4 -6 -2 -5 -13z"/>
<path d="M121 2634 c0 -11 3 -14 6 -6 3 7 2 16 -1 19 -3 4 -6 -2 -5 -13z"/>
<path d="M332 2620 c0 -14 2 -19 5 -12 2 6 2 18 0 25 -3 6 -5 1 -5 -13z"/>
<path d="M701 2624 c0 -11 3 -14 6 -6 3 7 2 16 -1 19 -3 4 -6 -2 -5 -13z"/>
<path d="M522 2610 c0 -14 2 -19 5 -12 2 6 2 18 0 25 -3 6 -5 1 -5 -13z"/>
<path d="M112 2560 c0 -14 2 -19 5 -12 2 6 2 18 0 25 -3 6 -5 1 -5 -13z"/>
<path d="M511 2554 c0 -11 3 -14 6 -6 3 7 2 16 -1 19 -3 4 -6 -2 -5 -13z"/>
<path d="M503 2475 c0 -27 2 -38 4 -22 2 15 2 37 0 50 -2 12 -4 0 -4 -28z"/>
<path d="M672 2470 c0 -14 2 -19 5 -12 2 6 2 18 0 25 -3 6 -5 1 -5 -13z"/>
<path d="M1448 2170 c-381 -69 -638 -369 -638 -746 0 -328 207 -605 530 -706
63 -19 95 -23 205 -22 154 1 235 18 345 75 93 48 110 49 134 5 23 -42 52 -56
122 -56 77 0 108 19 144 90 46 92 40 90 298 90 135 0 231 -4 243 -10 10 -6 32
-37 49 -69 41 -82 68 -101 144 -101 105 0 141 38 118 124 -18 67 -458 1210
-493 1277 -21 43 -33 58 -42 51 -7 -5 -24 -12 -38 -16 -15 -3 -34 -17 -43 -31
-9 -14 -107 -261 -217 -548 -187 -487 -218 -557 -241 -557 -5 0 -31 21 -59 47
-38 35 -52 44 -61 35 -7 -7 -20 -12 -29 -12 -9 0 -39 -15 -66 -34 -88 -61
-150 -86 -232 -96 -148 -19 -310 39 -422 151 -61 61 -90 113 -114 204 -88 342
236 668 578 579 69 -18 110 -37 186 -88 61 -42 98 -45 147 -15 67 41 92 106
66 171 -22 55 -193 162 -308 192 -71 20 -240 28 -306 16z m1160 -653 c11 -13
107 -255 123 -311 5 -17 4 -36 -2 -47 -9 -17 -23 -19 -144 -19 l-135 0 -6 26
c-5 18 10 70 51 181 66 177 85 205 113 170z"/>
<path d="M452 2130 c-18 -11 -37 -32 -42 -46 -6 -15 -10 -207 -10 -474 0 -289
-4 -467 -11 -500 -19 -87 -94 -154 -167 -149 -75 5 -132 -51 -132 -131 0 -46
29 -102 60 -117 53 -27 179 -10 275 37 62 30 137 105 171 171 53 105 54 115
54 652 0 480 -1 499 -20 537 l-20 40 -63 0 c-44 0 -71 -6 -95 -20z"/>
<path d="M0 595 l0 -25 575 0 575 0 5 -27 c4 -16 11 -48 16 -72 17 -73 -24
-131 -92 -131 -21 0 -21 1 4 20 14 11 30 33 35 49 9 25 8 28 -7 24 -15 -4 -17
1 -13 25 9 68 -93 102 -137 46 -12 -15 -20 -36 -20 -48 1 -15 3 -16 6 -4 2 9
18 22 34 28 35 15 71 3 89 -30 9 -17 8 -21 -7 -26 -37 -11 -48 -22 -51 -48 -4
-32 -11 -32 -48 -4 -23 18 -27 19 -21 5 11 -28 -1 -19 -19 14 -9 18 -14 46
-12 65 3 21 0 30 -5 25 -6 -6 -12 -33 -15 -62 -14 -150 158 -221 277 -113 21
18 43 34 48 34 5 0 24 -20 42 -44 62 -83 176 -148 290 -168 152 -26 312 30
419 147 33 36 62 65 66 65 4 0 22 -15 39 -34 94 -99 254 -53 292 84 6 22 4 21
-14 -7 -11 -17 -30 -37 -41 -43 -21 -11 -21 -10 4 33 33 55 33 87 0 126 -21
25 -34 31 -64 31 -42 0 -70 -20 -70 -51 0 -19 1 -19 16 -5 40 40 114 -4 114
-67 0 -41 -26 -67 -66 -67 -16 0 -24 4 -18 8 6 4 13 15 17 25 5 14 1 17 -23
17 -36 0 -70 40 -71 84 0 26 -2 28 -9 11 -18 -42 -11 -91 17 -119 l27 -27 -28
11 c-15 5 -45 24 -67 42 -35 28 -43 30 -60 20 -19 -12 -19 -12 -3 25 21 50 44
132 44 161 0 21 -4 23 -37 20 -33 -3 -38 -7 -41 -29 -3 -23 0 -26 22 -22 24 5
26 3 26 -34 0 -89 -106 -230 -212 -284 -57 -29 -172 -51 -227 -44 -67 9 -140
34 -192 67 -50 30 -151 133 -141 143 4 3 0 3 -9 0 -19 -7 -52 17 -55 41 -2 20
-24 130 -30 152 -3 9 -129 12 -589 12 l-585 0 0 -25z"/>
<path d="M1208 614 c-12 -11 5 -43 25 -46 16 -2 25 -17 38 -60 47 -158 166
-260 322 -275 129 -12 266 55 334 163 46 74 54 110 11 54 -19 -25 -41 -45 -49
-45 -7 0 -34 -15 -58 -33 -101 -74 -237 -82 -359 -19 -39 19 -72 33 -75 31 -7
-8 -69 68 -83 103 -8 18 -19 55 -25 83 -10 48 -12 50 -43 50 -18 0 -35 -3 -38
-6z"/>
<path d="M1310 600 c0 -12 10 -24 24 -30 16 -6 29 -24 39 -55 37 -109 134
-177 250 -177 106 0 191 51 238 144 27 53 19 57 -17 9 -77 -104 -212 -138
-322 -82 -52 26 -110 95 -123 146 -6 22 -13 46 -15 53 -2 6 -19 12 -39 12 -28
0 -35 -4 -35 -20z"/>
<path d="M1420 595 c0 -14 5 -25 10 -25 6 0 10 -7 10 -15 0 -18 1 -18 36 0 31
16 119 20 128 6 3 -5 25 -5 50 1 26 5 68 6 103 1 57 -8 58 -9 55 -38 l-3 -30
21 31 c11 17 23 45 26 62 l7 32 -222 0 -221 0 0 -25z"/>
<path d="M1890 601 c0 -11 -3 -28 -6 -38 -6 -15 -4 -16 7 -5 23 22 39 14 40
-20 l1 -33 13 30 c8 17 14 42 15 58 0 24 -3 27 -35 27 -28 0 -35 -4 -35 -19z"/>
<path d="M2100 595 l0 -25 580 0 580 0 0 25 0 25 -580 0 -580 0 0 -25z"/>
<path d="M189 448 c-10 -18 -8 -24 6 -35 13 -9 22 -10 31 -3 19 17 23 48 7 54
-24 10 -32 7 -44 -16z"/>
<path d="M439 448 c-10 -18 -8 -24 6 -35 13 -9 22 -10 31 -3 19 17 23 48 7 54
-24 10 -32 7 -44 -16z"/>
<path d="M689 449 c-15 -28 11 -59 34 -40 22 17 27 49 10 55 -24 10 -32 7 -44
-15z"/>
<path d="M2510 451 c-12 -23 12 -54 34 -45 20 8 26 52 9 58 -24 10 -32 7 -43
-13z"/>
<path d="M2764 444 c-7 -28 9 -46 32 -37 18 7 24 51 7 57 -26 10 -32 7 -39
-20z"/>
<path d="M3014 444 c-7 -28 9 -46 32 -37 17 6 26 46 11 55 -22 14 -37 8 -43
-18z"/>
<path d="M0 275 l0 -25 368 0 367 0 35 -47 c45 -60 98 -96 183 -124 74 -24 83
-21 93 27 6 31 5 31 -52 42 -31 7 -68 12 -82 12 -39 0 -87 36 -122 90 l-32 50
-379 0 -379 0 0 -25z"/>
<path d="M2510 293 c0 -5 -10 -19 -21 -33 l-21 -25 5 28 c2 15 3 27 1 27 -1 0
-12 -16 -24 -35 -27 -43 -106 -91 -175 -105 -43 -9 -53 -15 -62 -40 -17 -45 3
-56 69 -36 83 25 155 71 194 126 l36 50 374 0 374 0 0 25 0 25 -375 0 c-206 0
-375 -3 -375 -7z m-70 -93 c0 -10 -41 -30 -58 -30 -10 1 39 40 49 40 5 0 9 -5
9 -10z"/>
<path d="M830 236 c0 -2 8 -10 18 -17 15 -13 16 -12 3 4 -13 16 -21 21 -21 13z"/>
<path d="M718 154 c-12 -11 -48 -12 -370 -13 l-328 -1 11 -22 10 -23 330 3
c302 2 330 4 336 20 4 9 11 20 17 24 6 4 8 9 5 12 -3 4 -8 3 -11 0z"/>
<path d="M2546 143 c-3 -4 -6 -14 -6 -24 0 -17 20 -19 340 -21 l339 -3 10 22
11 23 -293 1 c-160 0 -315 2 -343 4 -28 3 -54 1 -58 -2z"/>
<path d="M1280 19 c0 -5 5 -7 10 -4 6 3 10 8 10 11 0 2 -4 4 -10 4 -5 0 -10
-5 -10 -11z"/>
</g>
</svg>
